<svg xmlns="http://www.w3.org/2000/svg" width="1920" height="1080" preserveAspectRatio="xMidYMid meet" version="1.0" viewBox="0 0 1440 810" zoomAndPan="magnify"><defs><clipPath id="48d64d861b"><path d="M425 156.047h590.195V652H425Zm0 0" clip-rule="nonzero"/></clipPath></defs><path fill="#fff" fill-opacity="1" d="M-144-81h1728v972H-144z"/><path fill="#f99d77" fill-opacity="1" d="M-144-81h1728v972H-144z"/><g clip-path="url(#48d64d861b)"><path fill="#364548" fill-opacity="1" fill-rule="evenodd" d="M514.14 557.54V519.78c0-4.96 3.102-8.945 8.243-8.945h1.418c5.136 0 8.222 3.992 8.222 8.945v79.492c0 19.387-9.574 34.809-26.265 44.637a48.95 48.95 0 0 1-12.164 5.149 48.936 48.936 0 0 1-13.094 1.738h-3.547c-19.39 0-34.793-9.582-44.637-26.262a48.972 48.972 0 0 1-5.156-12.164 48.936 48.936 0 0 1-1.73-13.098v-3.543c0-19.39 9.582-34.804 26.257-44.652a48.888 48.888 0 0 1 12.165-5.156 48.829 48.829 0 0 1 13.101-1.73h3.547c13.121 0 24.23 5.085 33.64 13.347Zm-70.827 39.968c0 14.004 6.78 24.531 19.054 31.246 4.961 2.715 10.348 4.172 16.008 4.172 13.746 0 23.941-6.461 30.973-18.13 3.27-5.417 4.793-11.347 4.793-17.648 0-12.14-5.77-21.613-15.532-28.648-5.93-4.266-12.609-6.406-19.886-6.406-14.985 0-25.766 7.57-32.239 21.015-2.18 4.547-3.18 9.368-3.18 14.399Zm150.75-53.305h2.476c20.723 0 36.477 10.047 46.465 28.133 3.992 7.234 6.129 15.133 6.129 23.406v3.543c0 19.383-9.559 34.828-26.274 44.637-7.738 4.539-16.285 6.887-25.254 6.887h-3.543c-19.39 0-34.8-9.586-44.636-26.262a49.14 49.14 0 0 1-6.895-25.262v-3.543c0-19.394 9.625-34.758 26.258-44.648 3.82-2.278 7.875-4 12.164-5.168a48.567 48.567 0 0 1 13.11-1.723Zm-33.649 53.305c0 13.617 6.695 23.594 18.152 30.625 5.391 3.3 11.309 4.793 17.625 4.793 13.434 0 23.36-6.805 30.27-18.145 3.297-5.402 4.785-11.34 4.785-17.633 0-12.64-6.086-22.293-16.496-29.293a33.035 33.035 0 0 0-9.02-4.32 33.199 33.199 0 0 0-9.898-1.441c-14.98 0-25.762 7.57-32.23 21.015-2.188 4.547-3.188 9.368-3.188 14.399Zm163.059-33.985c-2.7-1.265-7.754-1.683-10.672-1.796-14.942-.563-25.75 7.851-32.09 21.03-2.195 4.548-3.191 9.36-3.191 14.391 0 15.317 8.043 26.04 21.69 32.575 4.997 2.386 11.446 2.84 16.903 2.84 4.801 0 11.586-2.942 15.844-4.961l.738-.352h3.309l.363.074c4.067.848 7.137 3.426 7.137 7.801v1.77c0 10.886-19.899 13.378-27.492 13.91-26.77 1.855-46.828-12.86-54.469-38.414-1.328-4.438-1.926-8.848-1.926-13.473v-3.535c0-19.395 9.625-34.754 26.258-44.633a48.551 48.551 0 0 1 12.16-5.191 48.4 48.4 0 0 1 13.11-1.73h3.543c9.53 0 18.312 2.706 26.18 8.081l.648.445.406.676c.851 1.383 1.582 3.035 1.582 4.711v1.77c0 4.566-3.418 7.02-7.54 7.816l-.339.059h-1.059c-2.668 0-8.734-2.762-11.117-3.883Zm58.004 12.11 20.964-20.738c1.961-1.907 9.403-9.985 12.329-9.985h3.203l.367.074c4.078.848 7.133 3.43 7.133 7.817v1.765c0 2.993-3.5 6.47-5.434 8.54-4.105 4.355-8.434 8.566-12.637 12.832l-21.605 21.93 27.824 28.05a720.68 720.68 0 0 1 7.617 7.836c.887.933 2.2 2.078 2.946 3.39.8 1.215 1.289 2.586 1.289 4.043v1.848l-.102.426c-1.004 4.082-3.594 7.371-8.113 7.371h-1.426c-2.957 0-6.3-3.344-8.324-5.262-4.156-3.937-8.211-8.074-12.301-12.097l-13.73-13.477v21.54c0 4.96-3.11 8.948-8.243 8.948h-1.382c-5.137 0-8.239-3.988-8.239-8.949V520.16c0-4.96 3.102-8.93 8.239-8.93h1.382c5.133 0 8.243 3.97 8.243 8.93v55.496Zm222.875-30.723h1.777c5.363 0 8.941 3.613 8.941 8.945 0 7.407-7.078 9.301-13.199 9.301-8.031 0-15.7 4.864-21.238 10.317-6.922 6.808-9.922 15.52-9.922 25.101v43.293c0 4.961-3.098 8.946-8.238 8.946h-1.414c-5.137 0-8.239-3.981-8.239-8.946v-45.773c0-17.578 8.559-31.93 22.848-41.992 8.539-6.012 18.277-9.184 28.703-9.184ZM877.254 630.7c6.508 2.273 13.926 1.948 20.601.784 3.418-1.453 12.149-5.261 15.364-4.703l.5.086.46.227c1.962.949 3.833 2.297 4.837 4.293 2.34 4.676 1.214 9.379-3.383 12.035l-1.528.887c-16.964 9.789-35.003 8.43-51.914-.711-8.086-4.371-14.27-10.86-18.832-18.77l-1.066-1.844c-10.89-18.859-9.418-38.695 2.863-56.632 4.239-6.196 9.778-10.985 16.258-14.73l2.45-1.415c15.976-9.223 33.093-8.59 49.503-.496 8.82 4.351 15.969 10.84 20.89 19.371l.888 1.535c3.578 6.2-1.055 11.598-5.836 15.293-5.555 4.281-11.16 9.461-16.48 14.028l-35.571 30.761Zm-15.36-10.786 53.774-46.238c-3.602-4.54-9.617-7.809-14.727-9.758-10.312-3.93-20.484-2.606-29.945 2.852-12.379 7.148-17.652 18.53-17.191 32.699.183 5.578 1.683 10.957 4.644 15.703a41.565 41.565 0 0 0 3.469 4.742Zm-96.484-358.36h52.766v53.942h26.68c12.324 0 24.992-2.191 36.664-6.148 5.734-1.946 12.168-4.649 17.824-8.078-7.45-9.723-11.254-22.004-12.371-34.106-1.524-16.465 1.8-37.894 12.941-50.781l5.55-6.418 6.61 5.316c16.614 13.367 30.637 32.078 33.102 53.348 20.039-5.89 43.566-4.5 61.226 5.695l7.246 4.18-3.812 7.445c-14.93 29.176-46.164 38.207-76.695 36.61-45.688 113.765-145.153 167.66-265.762 167.66-62.309 0-119.473-23.293-152.024-78.57l-.53-.926-4.743-9.649c-11.004-24.332-14.66-50.988-12.18-77.625l.743-7.976h45.117v-53.918h52.765v-52.766H702.07v-52.77h63.325v105.536"/></g><path fill="#22a0c8" fill-opacity="1" fill-rule="evenodd" d="M936.352 281.54c3.539-27.497-17.04-49.095-29.801-59.353-14.707 17-16.992 61.563 6.082 80.325-12.88 11.437-40.012 21.804-67.793 21.804H506.637c-2.7 29 2.39 55.707 14.02 78.563l3.847 7.039a130.432 130.432 0 0 0 7.973 11.965c13.906.89 26.726 1.199 38.453.941h.004c23.046-.508 41.855-3.23 56.105-8.168a4.064 4.064 0 0 1 2.66 7.672c-1.894.66-3.87 1.277-5.91 1.86h-.008c-11.222 3.23-23.258 5.359-38.785 6.32.926.015-.957.137-.965.137-.527.035-1.191.109-1.722.136-6.11.348-12.707.418-19.45.418-7.375 0-14.636-.14-22.757-.554l-.23.136c28.151 31.672 72.233 50.668 127.464 50.668 116.883 0 216.023-51.812 259.922-168.133 31.144 3.196 61.078-4.746 74.695-31.328-21.687-12.511-49.578-8.523-65.64-.449"/><path fill="#37b1d9" fill-opacity="1" fill-rule="evenodd" d="M936.352 281.54c3.539-27.497-17.04-49.095-29.801-59.353-14.707 17-16.992 61.563 6.082 80.325-12.88 11.437-40.012 21.804-67.793 21.804H526.668c-1.379 44.414 15.102 78.125 44.266 98.508h.004c23.046-.508 41.855-3.23 56.105-8.168a3.987 3.987 0 0 1 1.547-.172 4.03 4.03 0 0 1 1.496.422c.469.239.879.559 1.226.953.348.399.606.848.778 1.344.176.5.246 1.012.219 1.54a4.035 4.035 0 0 1-1.285 2.766c-.387.358-.825.632-1.317.82-1.898.66-3.875 1.276-5.914 1.858h-.008c-11.222 3.231-24.289 5.637-39.816 6.594-.004 0-.375-.355-.383-.355 39.781 20.402 97.457 20.308 163.586-5.07 74.148-28.489 143.152-82.754 191.312-144.825-.71.32-1.418.656-2.117 1.008"/><path fill="#1b81a5" fill-opacity="1" fill-rule="evenodd" d="M507.285 359.555c2.074 15.535 6.645 30.078 13.383 43.328l3.848 7.039a130.107 130.107 0 0 0 7.972 11.96c13.907.895 26.723 1.204 38.457.942 23.047-.508 41.856-3.23 56.106-8.168a4.06 4.06 0 0 1 3.039.254c.472.238.883.555 1.23.953.344.395.606.844.778 1.344a4.063 4.063 0 0 1-1.066 4.3 3.94 3.94 0 0 1-1.321.825c-1.895.66-3.871 1.273-5.91 1.86h-.008c-11.223 3.23-24.223 5.495-39.75 6.46-.531.032-1.461.04-2 .067-6.106.344-12.633.554-19.379.554-7.684.016-15.36-.168-23.031-.554 28.152 31.664 72.508 50.703 127.726 50.703 100.067 0 187.125-37.98 237.653-121.899H507.297"/><path fill="#1d91b4" fill-opacity="1" fill-rule="evenodd" d="M529.719 359.555c5.984 27.277 20.355 48.691 41.226 63.27 23.047-.509 41.856-3.231 56.106-8.169a4.06 4.06 0 0 1 3.039.254c.472.238.883.555 1.23.953.344.395.606.844.778 1.344a4.063 4.063 0 0 1-1.066 4.3 3.94 3.94 0 0 1-1.321.825c-1.895.66-3.871 1.273-5.91 1.86h-.008c-11.223 3.23-24.496 5.495-40.027 6.46 39.777 20.399 97.289 20.106 163.39-5.293 40.004-15.367 78.504-38.246 113.043-65.804H529.73"/><path fill="#23a3c2" fill-opacity="1" fill-rule="evenodd" d="M552.55 270.379h45.735v45.73h-45.734Zm3.81 3.812h3.609v38.086h-3.633v-38.086Zm6.785 0h3.753v38.086h-3.753Zm6.925 0h3.754v38.086h-3.754Zm6.934 0h3.75v38.086h-3.75Zm6.93 0h3.754v38.086h-3.75v-38.086Zm6.93 0h3.609v38.086h-3.614v-38.086Zm14.452-56.582h45.743v45.73h-45.743Zm3.813 3.813h3.61v38.11h-3.61Zm6.785 0h3.754v38.11h-3.746v-38.106Zm6.93 0h3.75v38.11h-3.75Zm6.93 0h3.75v38.11h-3.75Zm6.93 0h3.753v38.11h-3.754Zm6.925 0h3.617v38.11h-3.617Zm0 0"/><path fill="#34bbde" fill-opacity="1" fill-rule="evenodd" d="M605.32 270.379h45.739v45.73H605.32Zm3.813 3.812h3.605v38.086h-3.605Zm6.785 0h3.75v38.086h-3.746v-38.086Zm6.926 0h3.754v38.086h-3.754Zm6.93 0h3.753v38.086h-3.754Zm6.93 0h3.757v38.086h-3.758Zm6.929 0h3.613v38.086h-3.613Zm0 0"/><path fill="#23a3c2" fill-opacity="1" fill-rule="evenodd" d="M658.082 270.379h45.738v45.73h-45.738Zm3.809 3.812h3.609v38.086h-3.61Zm6.785 0h3.754v38.086h-3.754Zm6.93 0h3.753v38.086h-3.754Zm6.93 0h3.753v38.086h-3.715v-38.086Zm6.929 0h3.758v38.086h-3.758Zm6.93 0h3.609v38.086h-3.61Zm0 0"/><path fill="#34bbde" fill-opacity="1" fill-rule="evenodd" d="M658.082 217.61h45.738v45.73h-45.738Zm3.809 3.812h3.609v38.11h-3.61Zm6.785 0h3.754v38.11h-3.754Zm6.93 0h3.753v38.11h-3.754Zm6.93 0h3.753v38.11h-3.715v-38.106Zm6.929 0h3.758v38.11h-3.758Zm6.93 0h3.609v38.11h-3.61Zm14.457 48.957h45.734v45.73H710.89v-45.73Zm3.812 3.812h3.606v38.086h-3.579v-38.086Zm6.785 0h3.75v38.086h-3.75Zm6.926 0h3.754v38.086h-3.754Zm6.93 0h3.758v38.086h-3.758Zm6.93 0h3.757v38.086h-3.758Zm6.933 0h3.61v38.086h-3.61Zm0 0"/><path fill="#23a3c2" fill-opacity="1" fill-rule="evenodd" d="M710.863 217.61h45.735v45.73h-45.739v-45.73Zm3.813 3.812h3.605v38.11h-3.605Zm6.785 0h3.75v38.11h-3.75Zm6.926 0h3.754v38.11h-3.754Zm6.93 0h3.753v38.11h-3.754Zm6.93 0h3.757v38.11h-3.758Zm6.933 0h3.61v38.11h-3.61Zm0 0"/><path fill="#34bbde" fill-opacity="1" fill-rule="evenodd" d="M710.863 164.816h45.735v45.739h-45.739v-45.739Zm3.813 3.809h3.605v38.113h-3.605Zm6.785 0h3.75v38.113h-3.75Zm6.926 0h3.754v38.113h-3.754Zm6.93 0h3.753v38.113h-3.754Zm6.93 0h3.757v38.113h-3.758Zm6.933 0h3.61v38.113h-3.61Zm0 0"/><path fill="#23a3c2" fill-opacity="1" fill-rule="evenodd" d="M763.617 270.379h45.735v45.73h-45.735Zm3.809 3.812h3.61v38.086h-3.61Zm6.785 0h3.754v38.086h-3.754Zm6.93 0h3.757v38.086h-3.757Zm6.93 0h3.753v38.086h-3.754Zm6.933 0h3.75v38.086h-3.75Zm6.926 0h3.61v38.086h-3.61Zm0 0"/><path fill="#d3ecec" fill-opacity="1" fill-rule="evenodd" d="M648.191 390.254a12.673 12.673 0 0 1 4.883.914 12.67 12.67 0 0 1 4.152 2.723c.594.59 1.126 1.226 1.594 1.921a12.51 12.51 0 0 1 1.184 2.196 12.637 12.637 0 0 1 0 9.734 12.705 12.705 0 0 1-4.723 5.684c-.699.457-1.437.844-2.21 1.152a12.543 12.543 0 0 1-4.884.91 12.49 12.49 0 0 1-4.773-1.008 12.616 12.616 0 0 1-5.578-18.566c.453-.687.969-1.32 1.543-1.906a12.615 12.615 0 0 1 8.813-3.754"/><path fill="#364548" fill-opacity="1" fill-rule="evenodd" d="M648.191 393.832c1.13 0 2.22.203 3.274.613-.352.203-.66.457-.926.762-.27.305-.48.645-.633 1.02a3.641 3.641 0 0 0-.152 2.359 3.634 3.634 0 0 0 1.312 1.969c.32.246.672.437 1.055.566.383.133.777.2 1.184.2 1.394 0 2.61-.774 3.234-1.915.246.594.43 1.207.543 1.84a8.96 8.96 0 0 1-.121 3.813 9.073 9.073 0 0 1-1.684 3.422 9.078 9.078 0 0 1-2.949 2.421 9.115 9.115 0 0 1-3.683.993 9.234 9.234 0 0 1-1.915-.11 9.16 9.16 0 0 1-1.851-.512 8.806 8.806 0 0 1-1.7-.89 8.864 8.864 0 0 1-1.472-1.227c-.45-.46-.84-.965-1.18-1.511a8.985 8.985 0 0 1-1.336-5.512 9.1 9.1 0 0 1 .356-1.883 9.016 9.016 0 0 1 .75-1.766 8.96 8.96 0 0 1 1.105-1.57 8.993 8.993 0 0 1 4.883-2.875 8.955 8.955 0 0 1 1.906-.203m-223.164-29.719h586.93c-12.777-3.242-40.434-7.62-35.871-24.37-23.238 26.89-79.277 18.866-93.422 5.608-15.75 22.84-107.437 14.157-113.832-3.636-19.746 23.168-80.926 23.168-100.672 0-6.398 17.77-98.082 26.476-113.832 3.633-14.144 13.261-70.156 21.285-93.418-5.602 4.55 16.746-23.101 21.125-35.887 24.367"/><path fill="#bdd9d7" fill-opacity="1" fill-rule="evenodd" d="M681.738 481.203c-31.246-14.828-48.394-34.984-57.937-56.988-11.61 3.312-25.559 5.43-41.77 6.34-6.11.34-12.531.515-19.27.515-7.773 0-15.964-.23-24.562-.683 28.656 28.613 63.906 50.683 129.18 51.086 4.816 0 9.598-.09 14.36-.27"/><path fill="#d3ecec" fill-opacity="1" fill-rule="evenodd" d="M635.398 444.484c-4.32-5.867-8.539-13.246-11.597-20.304-11.61 3.316-25.563 5.433-41.778 6.343 11.137 6.047 27.063 11.645 53.38 13.961"/></svg>